<svg width="41" height="36" viewBox="0 0 41 36" fill="none" xmlns="http://www.w3.org/2000/svg">
<g opacity="0.25">
<path fill-rule="evenodd" clip-rule="evenodd" d="M37.7947 0.0479801C36.2408 0.446028 34.5387 2.87258 34.5387 4.68956C34.5387 5.26615 34.7114 5.94884 35.0553 6.73252L35.2809 7.24657L34.8648 7.87348C34.2677 8.77307 34.0403 9.59529 34.108 10.609C34.1373 11.0479 34.2455 11.6516 34.3486 11.9503L34.536 12.4936L34.1934 12.8896C33.7828 13.3642 33.2808 14.1907 33.1109 14.6717C32.9605 15.0974 32.9434 16.3702 33.0794 17.011L33.1794 17.4816L32.5521 18.0706C31.4845 19.073 31.0535 20.0519 31.0535 21.4742V22.1906L30.4803 22.4961C29.3037 23.123 28.542 24.1931 28.2905 25.5722C28.1785 26.1862 28.1776 26.1874 27.8045 26.2823C26.2667 26.6735 25.2965 27.4521 24.6846 28.7864L24.4639 29.2678L23.6085 29.2915C22.5099 29.3221 21.9359 29.5098 21.1845 30.0844L20.5784 30.5478L20.1066 30.1826C19.3652 29.6087 19.0335 29.5018 17.8378 29.4515L16.7744 29.4068L16.4969 28.8385C15.921 27.6596 15.1179 27.0103 13.7245 26.5971L13.042 26.3947L12.9154 25.7575C12.6458 24.4004 11.8582 23.3429 10.6433 22.7061L10.1035 22.4233L10.0917 21.6869C10.0756 20.6945 9.91548 20.0817 9.50588 19.445C9.12498 18.8531 8.80048 18.4908 8.28073 18.0773L7.93275 17.8003L8.03887 17.3008C8.09729 17.0261 8.12848 16.4172 8.10812 15.9478C8.07675 15.2216 8.02805 15.0061 7.7817 14.5016C7.62248 14.1755 7.27835 13.6668 7.01687 13.3709L6.54141 12.833L6.75392 12.1201C7.18618 10.6692 6.96432 9.25951 6.11282 8.04693L5.75118 7.53186L5.91856 7.19941C6.91002 5.2302 6.52417 3.20679 4.82255 1.45153C3.49284 0.0798539 2.23788 -0.00992972 1.34291 1.20256C1.14985 1.46422 0.919546 1.82252 0.831223 1.99893C0.571023 2.51836 0.176183 3.77366 0.051815 4.47645C-0.0941062 5.30155 0.0611699 6.08291 0.606976 7.26964L0.980813 8.08241L0.78619 8.77186C0.676864 9.15935 0.57084 9.86714 0.544058 10.3879L0.496549 11.3144L0.866259 12.0757C1.06959 12.4944 1.37474 13.0573 1.54432 13.3265C1.82461 13.7717 1.84469 13.8498 1.76646 14.1867C1.71904 14.3906 1.67658 15.0369 1.67199 15.6229C1.66511 16.4993 1.6973 16.7723 1.85331 17.161C2.07802 17.7209 2.57421 18.495 3.08131 19.0771C3.44496 19.4944 3.4468 19.5004 3.44753 20.2699C3.44845 21.328 3.59602 22.1592 3.87484 22.6767C4.16366 23.2128 5.12943 24.2938 5.63727 24.6493C5.87766 24.8177 6.01496 24.9848 6.01514 25.1095C6.01551 25.4524 6.46107 27.0011 6.69155 27.4605C7.05438 28.1839 8.21194 29.1544 9.24999 29.6054C9.57723 29.7477 9.66317 29.844 9.8013 30.2239C10.0543 30.9197 10.7417 31.9671 11.2459 32.4252C11.7244 32.8598 12.6657 33.2675 13.7562 33.5124C14.2591 33.6253 14.3579 33.6946 15.1366 34.4813C16.3011 35.6577 16.8797 35.9439 18.1922 35.993C18.8458 36.0175 19.4106 35.9781 19.992 35.8676C20.6838 35.736 20.9272 35.7255 21.3192 35.8105C21.931 35.943 23.1214 35.9438 23.8696 35.8122C24.7366 35.6596 25.8101 34.9141 26.5819 33.9286C26.9232 33.4925 26.9775 33.4618 27.7547 33.2633C29.6849 32.7704 30.6091 31.9884 31.3808 30.1947C31.6383 29.5965 31.7205 29.4931 32.1019 29.2883C32.7947 28.9162 33.5663 28.3579 34.0161 27.9035C34.4962 27.4185 34.7315 26.8654 35.0348 25.5095L35.2379 24.6018L35.8165 24.092C37.2685 22.8127 37.6767 21.9579 37.6948 20.1595C37.7046 19.1839 37.7049 19.1828 38.0334 18.7697C39.3626 17.098 39.6934 15.9789 39.369 14.2515L39.2246 13.4823L39.5509 12.967C39.7304 12.6836 40.0277 12.1333 40.2117 11.7441C40.5226 11.0862 40.545 10.981 40.5297 10.2489C40.5196 9.76596 40.4263 9.1208 40.2886 8.58109L40.0641 7.70086L40.3152 7.19125C41.1175 5.56339 41.197 4.53084 40.6471 2.88277C40.272 1.75868 40.002 1.23731 39.5107 0.687859C38.9995 0.116174 38.4004 -0.107218 37.7947 0.0479801ZM38.522 1.75414C38.9895 2.37335 39.5832 4.02234 39.5832 4.70179C39.5832 4.96993 39.3253 5.90436 39.2205 6.01573C39.1816 6.05715 38.9939 5.98414 38.8034 5.85359C38.3082 5.51419 37.6745 5.52698 36.9605 5.89074C36.6641 6.04186 36.3951 6.13563 36.3627 6.09922C36.1803 5.89399 35.9889 4.99402 36.0238 4.50591C36.0903 3.57713 36.9843 2.11605 37.7895 1.62007C38.1723 1.38416 38.2539 1.39918 38.522 1.75414ZM3.38828 2.08501C4.30004 2.81699 4.93949 3.93219 4.98709 4.87311C5.01635 5.45294 4.75917 6.53961 4.6094 6.46891C3.64665 6.01499 3.44542 5.94911 3.01821 5.94809C2.64905 5.94726 2.46671 6.00239 2.19679 6.19632C1.79782 6.48318 1.78003 6.46965 1.55909 5.70988C1.37574 5.07945 1.43077 4.5931 1.80828 3.50551C2.20541 2.36159 2.5543 1.81724 2.89045 1.81724C2.98079 1.81724 3.20476 1.93769 3.38828 2.08501ZM38.1968 7.71235C37.9326 7.99634 37.815 7.98967 37.4618 7.67084L37.172 7.40918L37.575 7.20571L37.9781 7.00233L38.1898 7.24722L38.4016 7.49211L38.1968 7.71235ZM3.48954 7.53269C3.66784 7.61858 3.81367 7.71911 3.81367 7.75608C3.81367 7.83854 3.27602 8.30312 3.18064 8.30312C3.14285 8.30312 3.01536 8.19925 2.89732 8.07241C2.71288 7.87403 2.69757 7.80899 2.78772 7.60913C2.91099 7.3358 3.04948 7.32069 3.48954 7.53269ZM37.6279 9.37607C37.9525 9.42518 38.1532 9.39664 38.489 9.2533L38.9267 9.06642L38.9742 9.26386C39.0003 9.37246 39.0492 9.71315 39.0828 10.021C39.1375 10.5223 39.1141 10.6468 38.8577 11.2182L38.5714 11.856L38.3207 11.6197C38.1827 11.4897 37.9718 11.3324 37.852 11.2699C37.5226 11.0984 36.703 11.1423 36.2219 11.3573C35.9895 11.4611 35.786 11.5461 35.7696 11.5461C35.6815 11.5461 35.5485 10.774 35.5482 10.2603C35.5477 9.78607 35.6038 9.55415 35.832 9.08587L36.1163 8.50242L36.6605 8.90714C37.0333 9.18446 37.338 9.33206 37.6279 9.37607ZM5.27242 9.50783C5.37964 9.75948 5.4919 10.1464 5.52189 10.3677C5.57664 10.771 5.4144 11.824 5.29755 11.8239C5.26334 11.8239 5.01818 11.7405 4.75275 11.6386C3.94418 11.3281 3.29638 11.4261 2.73636 11.9434C2.62309 12.048 2.5145 12.1161 2.49515 12.0947C2.3218 11.9027 1.97566 11.0149 1.96576 10.7373C1.95173 10.3407 2.06674 9.41499 2.13002 9.41499C2.15304 9.41499 2.29621 9.47994 2.44819 9.55934C3.04985 9.87363 3.87787 9.69796 4.59326 9.10413C4.92289 8.83051 5.00479 8.87916 5.27242 9.50783ZM37.457 12.8729C37.6063 13.1258 37.6043 13.14 37.3947 13.313C37.1172 13.5422 37.0849 13.5392 36.747 13.2519C36.3907 12.949 36.3931 12.866 36.7629 12.7022C37.1534 12.5292 37.2714 12.5582 37.457 12.8729ZM4.3503 13.0376C4.50915 13.0936 4.63912 13.1691 4.63912 13.2056C4.63912 13.242 4.51796 13.3891 4.36993 13.5324C4.16035 13.7352 4.04782 13.7795 3.86154 13.7323C3.56108 13.6561 3.47954 13.452 3.63353 13.1613C3.76551 12.9122 3.91886 12.8857 4.3503 13.0376ZM36.6904 14.8806C37.1014 14.9969 37.3409 14.9671 37.9093 14.729C37.9947 14.6932 38.024 14.8471 38.024 15.3312C38.024 16.062 37.9508 16.3106 37.5488 16.9451L37.2688 17.387L36.875 17.0203C36.3405 16.5226 35.8259 16.4457 34.712 16.6973C34.4796 16.7499 34.4709 16.7356 34.4151 16.2103C34.3272 15.3825 34.4512 14.9899 35.0622 14.1606L35.2862 13.8566L35.7756 14.3084C36.0923 14.6008 36.4152 14.8028 36.6904 14.8806ZM6.23003 14.7272C6.64918 15.3652 6.77877 15.8922 6.67825 16.5495C6.63533 16.8297 6.56141 17.0523 6.5139 17.044C6.46648 17.0357 6.17996 16.9783 5.87729 16.9164C5.1365 16.7649 4.62031 16.9059 4.1709 17.3828L3.84017 17.7336L3.55649 17.2573C3.15147 16.5773 3.07993 16.3365 3.07993 15.6533C3.07993 15.1117 3.09708 15.0545 3.24044 15.1155C3.32876 15.153 3.61042 15.2038 3.8664 15.2282C4.43147 15.282 4.87941 15.0774 5.41073 14.5227C5.60801 14.3166 5.80007 14.1671 5.8373 14.1904C5.87463 14.2137 6.05128 14.4553 6.23003 14.7272ZM36.003 18.2111C36.161 18.5095 36.1121 18.6522 35.808 18.7794C35.5293 18.896 35.5078 18.8884 35.2552 18.5827C35.0126 18.289 35.0045 18.2558 35.15 18.1483C35.3975 17.9655 35.8921 18.0019 36.003 18.2111ZM5.87665 18.4023L6.11722 18.4948L5.9514 18.7833C5.74302 19.1459 5.62223 19.1939 5.27948 19.0505C4.9703 18.9211 4.94361 18.8117 5.14878 18.5159C5.30461 18.2911 5.50547 18.2598 5.87665 18.4023ZM33.805 19.0411C33.805 19.0865 33.9905 19.3321 34.217 19.5867C34.7268 20.1595 35.2314 20.3842 35.8233 20.3019L36.2476 20.243L36.1774 20.9064C36.1159 21.4886 36.061 21.6304 35.7289 22.0653C35.2856 22.6457 35.0723 22.8423 35.0279 22.711C34.7828 21.9856 34.1219 21.615 33.1561 21.6614L32.5205 21.6918L32.5217 21.1822C32.5224 20.8411 32.5953 20.5152 32.7423 20.1964C33.0513 19.5259 33.805 18.7066 33.805 19.0411ZM8.40381 20.4037C8.50488 20.6146 8.61237 21.0556 8.64273 21.3836L8.69785 21.9801L8.0861 21.9407C7.32458 21.8917 6.74832 22.0927 6.42603 22.5196C6.30075 22.6855 6.1983 22.8694 6.1983 22.9282C6.1983 23.1189 6.06054 23.0432 5.67707 22.6416C5.18254 22.1236 4.99626 21.7306 4.93802 21.0823L4.89014 20.549L5.42962 20.5922C6.11254 20.647 6.5471 20.4138 7.06199 19.7163L7.42198 19.229L7.82104 19.6246C8.04052 19.8422 8.30283 20.1929 8.40381 20.4037ZM33.5532 23.1512C33.6357 23.2149 33.7293 23.3764 33.7612 23.5102C33.8118 23.7225 33.7814 23.7668 33.5233 23.8577C33.143 23.9916 33.188 24.0079 32.9786 23.6608C32.6956 23.1919 32.7327 23.1224 33.306 23.0479C33.3594 23.041 33.4706 23.0875 33.5532 23.1512ZM8.39913 23.5218C8.39886 23.6373 8.06538 24.2399 8.00182 24.2399C7.81132 24.2399 7.39062 24.0062 7.39062 23.9004C7.39062 23.5582 7.57524 23.406 7.98998 23.406C8.2566 23.406 8.39941 23.4464 8.39913 23.5218ZM31.5077 23.9948C31.634 24.3814 32.1779 25.0335 32.5257 25.2152C32.6694 25.2903 32.9726 25.3517 33.1993 25.3517H33.6117L33.4691 25.8382C33.2497 26.5866 33.1082 26.8022 32.5412 27.252C32.2526 27.4808 31.9908 27.668 31.9592 27.668C31.9277 27.6681 31.8777 27.5534 31.8481 27.4133C31.7008 26.7155 31.0647 26.2331 30.1469 26.1233C29.6 26.0579 29.5795 25.9946 29.8603 25.2364C30.036 24.762 30.5178 24.1956 31.051 23.8366C31.3607 23.6281 31.3914 23.6388 31.5077 23.9948ZM10.3687 24.2573C10.8493 24.5789 11.2841 25.1894 11.4345 25.7538C11.5582 26.218 11.4927 26.3709 11.1703 26.3709C10.4089 26.3709 9.58824 26.9324 9.39444 27.5858C9.33574 27.784 9.26696 27.9461 9.24173 27.9461C9.21642 27.9461 8.98007 27.7816 8.71647 27.5806C8.16828 27.1624 7.92542 26.8047 7.72758 26.1238L7.58845 25.6452L7.97109 25.6446C8.18149 25.6442 8.45838 25.6035 8.58651 25.5539C8.89844 25.4333 9.41388 24.8406 9.62868 24.3557C9.72462 24.1391 9.83101 23.9619 9.86513 23.9619C9.89934 23.9619 10.1259 24.0948 10.3687 24.2573ZM30.356 27.6958C30.4644 27.776 30.5086 27.9077 30.4882 28.0896C30.4609 28.3311 30.4177 28.3664 30.1192 28.3915C29.7976 28.4184 29.7762 28.4024 29.684 28.0672C29.6307 27.8732 29.5869 27.6832 29.5866 27.6449C29.5857 27.5282 30.1825 27.5677 30.356 27.6958ZM11.6096 27.9864C11.6096 28.3643 11.445 28.6873 11.2525 28.6873C10.9002 28.6873 10.7841 28.5822 10.7841 28.2631C10.7841 27.991 10.822 27.9403 11.0822 27.8644C11.5451 27.7294 11.6096 27.7443 11.6096 27.9864ZM28.169 28.0156C28.3849 29.0347 28.8344 29.6294 29.5212 29.804L29.943 29.9113L29.7077 30.2954C29.3301 30.9113 29.0265 31.1946 28.4396 31.4786C27.7133 31.8299 27.66 31.8225 27.66 31.3697C27.66 30.6873 27.1523 30.0652 26.3397 29.7517C26.1074 29.6621 25.9174 29.5609 25.9174 29.5268C25.9174 29.3989 26.4534 28.6312 26.7161 28.3828C26.968 28.1446 27.737 27.7753 28.0022 27.7651C28.0643 27.7627 28.1394 27.8755 28.169 28.0156ZM13.772 28.142C14.3502 28.3605 14.8966 28.8544 15.179 29.4136L15.3624 29.777L14.9438 29.9384C14.1302 30.2524 13.6273 30.8737 13.6273 31.5651C13.6273 31.9387 13.6197 31.9484 13.3751 31.8882C12.6462 31.7084 12.1843 31.3957 11.7594 30.7943C11.5257 30.4633 11.3344 30.1667 11.3344 30.1349C11.3344 30.1031 11.4521 30.0772 11.596 30.0772C12.2012 30.0772 12.8211 29.3777 13.0026 28.4901C13.0637 28.1909 13.1452 27.9461 13.1837 27.9461C13.2221 27.9461 13.4869 28.0343 13.772 28.142ZM23.9933 31.3975C23.9964 32.398 24.3342 33.0041 25.0306 33.2587C25.1714 33.3102 25.1123 33.3949 24.6637 33.7837C24.0589 34.3082 23.7298 34.4307 22.9245 34.4314L22.3621 34.432L22.4848 34.0845C22.5523 33.8934 22.6075 33.6537 22.6075 33.5517C22.6075 33.1967 22.3625 32.6776 21.9734 32.208L21.5816 31.7352L21.8464 31.4538C22.2954 30.9767 22.841 30.7468 23.5557 30.7337L23.9913 30.7257L23.9933 31.3975ZM18.9011 31.1165C19.0524 31.1982 19.2906 31.3867 19.4304 31.5354L19.6847 31.8056L19.3564 32.24C18.7675 33.0191 18.6152 33.6881 18.8998 34.2441C19.0338 34.506 19.0315 34.5115 18.7602 34.5717C18.1493 34.7072 17.372 34.4725 16.6769 33.9426C16.208 33.5851 16.0858 33.4128 16.3014 33.4128C16.3597 33.4128 16.5417 33.3093 16.7059 33.1827C17.12 32.8637 17.3203 32.2877 17.2814 31.528C17.2511 30.937 17.2571 30.9176 17.4794 30.8916C17.8764 30.8451 18.615 30.9619 18.9011 31.1165ZM26.0789 31.2479C26.2426 31.3521 26.274 31.4332 26.2276 31.632C26.1436 31.9925 26.0636 32.0497 25.743 31.9786C25.4715 31.9184 25.4588 31.8949 25.4588 31.4534C25.4588 31.0174 25.4705 30.9947 25.6652 31.0535C25.7787 31.0877 25.9649 31.1751 26.0789 31.2479ZM15.8391 31.4438C15.8503 31.7138 15.8244 32.0543 15.7899 32.0915C15.7786 32.1036 15.6436 32.139 15.49 32.1701C15.2376 32.2211 15.2007 32.1976 15.1069 31.9255C14.9736 31.5392 14.9574 31.585 15.3012 31.3733C15.7035 31.1255 15.8266 31.1417 15.8391 31.4438ZM21.1481 33.5529C21.1481 33.6109 21.0465 33.7549 20.9222 33.8728C20.7065 34.0776 20.686 34.0802 20.4636 33.9331C20.1783 33.7443 20.171 33.5798 20.4319 33.2233L20.6328 32.9487L20.8905 33.1981C21.0322 33.3352 21.1481 33.4949 21.1481 33.5529Z" fill="white"/>
</g>
</svg>
