<svg width="27" height="27" viewBox="0 0 27 27" fill="none" xmlns="http://www.w3.org/2000/svg">
<g clip-path="url(#clip0_2_444)">
<path d="M19.4849 0.384613H19.1378C18.4871 0.384613 17.8772 0.703822 17.5063 1.23865L16.247 3.05485C15.587 4.00675 14.5441 4.55261 13.3859 4.55261C13.3857 4.55261 13.3854 4.55261 13.3852 4.55261C12.2266 4.55241 11.1838 4.00614 10.5239 3.05383L9.26647 1.23921C8.89562 0.704077 8.28566 0.384613 7.63467 0.384613H7.42192C7.21376 0.384613 7.05367 0.568864 7.08238 0.775029C7.10833 0.961017 7.12896 1.10849 7.13458 1.14665C7.39791 2.61764 8.15422 4.06565 9.21054 5.12094C10.0346 5.94417 11.4381 6.9255 13.4448 6.9255C15.4303 6.9255 16.8132 5.94709 17.6237 5.12636C18.6636 4.07311 19.421 2.64793 19.7564 1.11314C19.7603 1.09475 19.7856 0.969752 19.8209 0.795973C19.8639 0.583627 19.7016 0.384613 19.4849 0.384613Z" fill="#36C6F4"/>
<path d="M16.5157 19.8647H23.7143C23.9037 19.8647 24.0572 19.7112 24.0572 19.5218V18.8125C24.0572 18.6232 23.9037 18.4697 23.7143 18.4697H16.5156C16.1022 18.4697 15.7465 18.152 15.7271 17.739C15.7063 17.2982 16.0576 16.9342 16.494 16.9342H23.7143C23.9037 16.9342 24.0572 16.7807 24.0572 16.5914V15.9463C24.0572 15.7569 23.9037 15.6034 23.7143 15.6034H16.5156C16.1022 15.6034 15.7465 15.2858 15.7271 14.8728C15.7063 14.4319 16.0576 14.068 16.494 14.068H23.7143C23.9037 14.068 24.0572 13.9145 24.0572 13.7251V11.4134L23.975 11.2504C23.2341 9.78065 22.8336 8.13388 22.8167 6.48814C22.7998 4.8424 23.1664 3.18766 23.8769 1.70328C24.0179 1.409 23.9941 1.06727 23.8124 0.79444C23.6377 0.532392 23.3352 0.384613 23.0204 0.384613H21.7513C21.5882 0.384613 21.4475 0.4997 21.4152 0.659636C21.2774 1.3402 21.2599 1.42565 21.2565 1.44108C20.8599 3.25601 19.9578 4.94798 18.7162 6.20525C17.259 7.68105 15.4361 8.46106 13.4448 8.46106C11.4406 8.46106 9.60113 7.68171 8.12528 6.20724C6.84957 4.93281 5.93695 3.18317 5.62131 1.40701C5.61682 1.38178 5.61054 1.33902 5.519 0.68063C5.4955 0.511142 5.35058 0.384613 5.17941 0.384613H3.73089C3.47139 0.384613 3.21757 0.483609 3.04016 0.672968C2.78649 0.9437 2.72121 1.32865 2.86036 1.66114L3.09022 2.21022C4.23465 4.94338 4.20314 8.06492 3.00379 10.7744L2.71197 11.4337V13.7572C2.71197 13.9466 2.86547 14.1001 3.05482 14.1001H10.2389C10.6523 14.1001 11.008 14.4178 11.0274 14.8307C11.0482 15.2716 10.6969 15.6356 10.2605 15.6356H3.05477C2.86541 15.6356 2.71191 15.7891 2.71191 15.9784V16.6235C2.71191 16.8128 2.86541 16.9663 3.05477 16.9663H10.2388C10.6522 16.9663 11.008 17.284 11.0274 17.697C11.0482 18.1378 10.6968 18.5018 10.2605 18.5018H3.05477C2.86541 18.5018 2.71191 18.6553 2.71191 18.8447V19.554C2.71191 19.7433 2.86541 19.8968 3.05477 19.8968H10.2388C10.6522 19.8968 11.008 20.2145 11.0274 20.6275C11.0482 21.0683 10.6968 21.4323 10.2605 21.4323H3.05477C2.86541 21.4323 2.71191 21.5858 2.71191 21.7752V23.2109C2.71191 24.1036 3.29925 24.8899 4.15527 25.1431L4.52112 25.2514C7.42066 26.1094 10.402 26.5383 13.3845 26.5383C16.3662 26.5383 19.349 26.1092 22.2478 25.2514L22.6137 25.1431C23.4698 24.8897 24.0571 24.1035 24.0571 23.2108V21.743C24.0571 21.5536 23.9036 21.4001 23.7142 21.4001H16.494V21.4001C16.0576 21.4001 15.7063 21.0361 15.7271 20.5952C15.7465 20.1824 16.1023 19.8647 16.5157 19.8647Z" fill="#36C6F4"/>
</g>
<defs>
<clipPath id="clip0_2_444">
<rect width="26.1538" height="26.1538" fill="white" transform="translate(0.307556 0.384613)"/>
</clipPath>
</defs>
</svg>
