<svg width="33" height="33" viewBox="0 0 33 33" fill="none" xmlns="http://www.w3.org/2000/svg">
<path fill-rule="evenodd" clip-rule="evenodd" d="M13.438 0.0637482C12.5237 0.278997 11.7643 1.09229 11.5839 2.04927C11.5479 2.24028 11.5185 2.9728 11.5185 3.67702V4.95755H10.0447C8.78898 4.95755 8.49711 4.97638 8.07321 5.08468C6.5871 5.46438 5.44383 6.60651 5.06376 8.09114C4.94644 8.54949 4.9365 8.81289 4.9365 11.4721C4.9365 14.1788 4.94444 14.381 5.06588 14.7656C5.29083 15.4781 5.79862 16.0192 6.53838 16.3347C6.81799 16.454 7.01151 16.465 9.17273 16.4838L11.5054 16.5041L11.5281 15.9244C11.5492 15.3867 11.5644 15.3306 11.7389 15.1487C12.121 14.7504 12.5938 14.7504 12.9759 15.1487C13.1502 15.3304 13.1657 15.387 13.1865 15.9207L13.2091 16.4968H16.4873H19.7654L19.788 15.9207C19.8089 15.387 19.8244 15.3304 19.9986 15.1487C20.251 14.8857 20.552 14.7893 20.8324 14.8817C20.9507 14.9207 21.1322 15.0409 21.2357 15.1487C21.41 15.3304 21.4255 15.387 21.4463 15.9207L21.4689 16.4968H23.6429C26.102 16.4968 26.3448 16.4646 26.9387 16.0601C27.3968 15.748 27.7502 15.277 27.9101 14.7656C28.0297 14.3827 28.038 14.1672 28.038 11.4721C28.038 8.81289 28.0281 8.54949 27.9108 8.09114C27.5316 6.60992 26.384 5.46354 24.9013 5.08468C24.4774 4.97638 24.1856 4.95755 22.9299 4.95755H21.456V3.67702C21.456 2.9728 21.4266 2.24028 21.3906 2.04927C21.2538 1.3232 20.7507 0.614732 20.1566 0.311294C19.5642 0.008695 19.3999 -0.00510055 16.455 0.000959174C14.9289 0.00411796 13.5713 0.0323537 13.438 0.0637482ZM19.3739 1.75151C19.7485 1.95606 19.7783 2.09227 19.7783 3.60056V4.95755H16.4873H13.1963V3.60056C13.1963 1.93588 13.2358 1.823 13.8738 1.66351C13.9803 1.63696 15.2144 1.62019 16.6163 1.62638C18.9184 1.6365 19.1854 1.64862 19.3739 1.75151ZM4.9365 23.3482C4.9365 29.1297 4.94154 29.389 5.06376 29.8663C5.36195 31.031 6.17205 32.0438 7.2 32.5372C8.20537 33.0196 7.80987 32.9999 16.4873 32.9999C25.1791 32.9999 24.7781 33.0201 25.7795 32.5311C26.849 32.0087 27.6956 30.9175 27.9413 29.7444C28.0203 29.3671 28.036 28.3133 28.0369 23.3159L28.038 17.3387L27.667 17.5635C27.463 17.6872 27.0637 17.8663 26.7797 17.9617L26.2635 18.1351L23.8598 18.1589L21.456 18.1826V19.4842C21.456 20.9493 21.4139 21.1213 21.0003 21.3428C20.7222 21.4918 20.5121 21.4918 20.234 21.3428C19.8202 21.1212 19.7783 20.9498 19.7783 19.4794V18.1729H16.4873H13.1963V19.4794C13.1963 20.9498 13.1544 21.1212 12.7406 21.3428C12.4624 21.4918 12.2523 21.4918 11.9742 21.3428C11.5606 21.1213 11.5185 20.9493 11.5185 19.4842V18.1826L9.11478 18.1589L6.71106 18.1351L6.19483 17.9629C5.9109 17.8681 5.54792 17.7083 5.38821 17.6077C5.2285 17.507 5.06156 17.4028 5.01716 17.376C4.95289 17.3371 4.9365 18.5484 4.9365 23.3482ZM1.97105 19.8549C1.22696 20.0007 0.539918 20.5481 0.19888 21.267L0 21.6863V23.9748C0 26.0102 0.0130995 26.3061 0.118282 26.6501C0.533336 28.0072 1.53722 29.0547 2.81742 29.4666C3.0585 29.5442 3.26371 29.5949 3.27339 29.5793C3.28306 29.5638 3.28287 27.3536 3.27293 24.6678L3.25487 19.7845L2.7567 19.7916C2.48271 19.7955 2.12915 19.824 1.97105 19.8549ZM29.7151 24.4421C29.7147 27.0039 29.6957 29.2126 29.6729 29.3505L29.6315 29.6013L29.8833 29.5558C30.2499 29.4895 31.1191 29.0513 31.4774 28.7522C31.9137 28.388 32.2711 27.9437 32.5202 27.4558C32.9514 26.6111 32.9622 26.5378 32.9919 24.2326C33.0113 22.7368 32.9966 22.0361 32.9407 21.783C32.6595 20.5103 31.6492 19.7845 30.1587 19.7845H29.7158L29.7151 24.4421Z" fill="white" fill-opacity="0.19"/>
</svg>
