<svg width="39" height="39" viewBox="0 0 39 39" fill="none" xmlns="http://www.w3.org/2000/svg">
<g opacity="0.25" clip-path="url(#clip0_2_488)">
<path d="M24.9805 5.33142C24.899 2.37793 22.4728 0 19.5 0C16.5272 0 14.101 2.37793 14.0195 5.33142C8.76997 7.41312 4.875 12.6977 4.875 18.8906V35.3438C4.875 37.36 6.51498 39 8.53125 39H30.4688C32.485 39 34.125 37.36 34.125 35.3438V18.8906C34.125 12.7119 30.2432 7.4183 24.9805 5.33142ZM19.5 2.4375C20.8559 2.4375 22.0074 3.3281 22.4014 4.55493C20.5071 4.17216 18.5232 4.16607 16.5986 4.55493C16.9926 3.3281 18.144 2.4375 19.5 2.4375ZM29.25 31.0781C29.25 33.0944 27.61 34.7344 25.5938 34.7344H13.4063C11.39 34.7344 9.75 33.0944 9.75 31.0781V26.8125C9.75 24.7962 11.39 23.1562 13.4063 23.1562H25.5938C27.61 23.1562 29.25 24.7962 29.25 26.8125V31.0781ZM28.6406 20.1094C27.9673 20.1094 27.4219 19.564 27.4219 18.8906C27.4219 14.5222 23.8685 10.9688 19.5 10.9688C15.1315 10.9688 11.5781 14.5222 11.5781 18.8906C11.5781 19.564 11.0327 20.1094 10.3594 20.1094C9.68602 20.1094 9.14063 19.564 9.14063 18.8906C9.14063 13.1785 13.7879 8.53125 19.5 8.53125C25.2121 8.53125 29.8594 13.1785 29.8594 18.8906C29.8594 19.564 29.314 20.1094 28.6406 20.1094Z" fill="white"/>
<path d="M25.5938 25.5937H13.4062C12.7344 25.5937 12.1875 26.1407 12.1875 26.8125V31.0781C12.1875 31.75 12.7344 32.2969 13.4062 32.2969H25.5938C26.2656 32.2969 26.8125 31.75 26.8125 31.0781V26.8125C26.8125 26.1407 26.2656 25.5937 25.5938 25.5937Z" fill="white"/>
<path d="M37.7812 20.7188H36.9434C36.733 20.7188 36.5625 20.8893 36.5625 21.0996V33.8976C36.5625 34.2345 36.9708 34.4086 37.2092 34.1705C38.315 33.0664 39 31.5416 39 29.8594V21.9375C39 21.2644 38.4544 20.7188 37.7812 20.7188Z" fill="white"/>
<path d="M0 21.9375V29.8594C0 31.5416 0.685014 33.0664 1.7908 34.1706C2.02922 34.4086 2.4375 34.2345 2.4375 33.8977V21.0996C2.4375 20.8893 2.26695 20.7188 2.05664 20.7188H1.21875C0.545619 20.7188 0 21.2644 0 21.9375Z" fill="white"/>
</g>
<defs>
<clipPath id="clip0_2_488">
<rect width="39" height="39" fill="white"/>
</clipPath>
</defs>
</svg>
