<svg width="31" height="31" viewBox="0 0 31 31" fill="none" xmlns="http://www.w3.org/2000/svg">
<g id="Frame 6">
<path id="image 23 (Traced)" fill-rule="evenodd" clip-rule="evenodd" d="M15.198 0.0347433C14.7983 0.204235 2.0056 6.28964 1.89691 6.36199C1.7436 6.46405 1.70818 6.70614 1.83176 6.80765C1.87342 6.84179 4.96669 8.17804 8.70583 9.77704L15.5041 12.6844L22.2385 9.80713C25.9424 8.22461 29.0341 6.89113 29.1091 6.84376C29.2835 6.73351 29.2866 6.48921 29.115 6.36709C29.0433 6.31609 26.0257 4.87064 22.4092 3.15505C15.7977 0.0186862 15.5196 -0.10165 15.198 0.0347433ZM0.0952759 8.45673C0.0097807 8.54366 0.000153404 9.37039 0.000153404 16.6379C0.000153404 25.519 -0.0185562 25.0637 0.357271 25.3355C0.53577 25.4647 14.1168 31 14.2553 31C14.3027 31 14.3844 30.9565 14.4368 30.9033C14.5223 30.8164 14.5318 29.9862 14.531 22.6748C14.5305 18.2023 14.5092 14.5096 14.4837 14.4689C14.4582 14.4281 14.2883 14.3263 14.1062 14.2427C13.1388 13.7986 0.356969 8.36008 0.280616 8.36008C0.231027 8.36008 0.147651 8.40358 0.0952759 8.45673ZM23.5897 11.3738C19.7298 13.0284 16.5491 14.4184 16.5215 14.4626C16.4939 14.5068 16.4709 18.2023 16.4704 22.6748C16.4695 30.1775 16.4773 30.8146 16.5702 30.909C16.6349 30.9747 16.7277 30.9998 16.8296 30.9791C17.0758 30.9291 30.3393 25.5308 30.5694 25.387C30.6855 25.3144 30.8219 25.1509 30.886 25.0075C30.9939 24.766 30.9986 24.4194 30.9999 16.6545C31.0011 9.37076 30.9916 8.54366 30.9061 8.45673C30.8537 8.40358 30.7652 8.36131 30.7093 8.36273C30.6534 8.3642 27.4496 9.71921 23.5897 11.3738Z" fill="white" fill-opacity="0.19"/>
</g>
</svg>
