<svg width="31" height="31" viewBox="0 0 31 31" fill="none" xmlns="http://www.w3.org/2000/svg">
<g id="cap 1" opacity="0.25">
<path id="Vector" d="M20.4015 3.25998C19.9297 3.16797 19.4407 3.26713 19.0421 3.53564C18.6434 3.80415 18.3677 4.22003 18.2756 4.69179L21.8333 5.38591C21.8789 5.1523 21.8781 4.912 21.8308 4.67873C21.7835 4.44546 21.6907 4.22379 21.5578 4.02638C21.4248 3.82896 21.2543 3.65967 21.0559 3.52817C20.8575 3.39667 20.6351 3.30554 20.4015 3.25998Z" fill="white"/>
<path id="Vector_2" d="M7.58849 16.7514C7.58849 16.7514 2.13661 20.6395 1.02933 21.9924C0.872777 22.1907 0.757452 22.4184 0.690127 22.6619C0.622801 22.9055 0.604833 23.16 0.637278 23.4106C0.669723 23.6612 0.751927 23.9028 0.879059 24.1212C1.00619 24.3396 1.17569 24.5304 1.37759 24.6823C3.42359 26.156 5.4398 24.0117 6.77159 22.6504C10.4398 23.5959 13.0782 26.5041 14.7735 27.3977C18.2125 29.2095 20.4002 23.7037 21.8671 21.8671C15.7827 18.1687 11.9077 17.2101 7.58849 16.7514Z" fill="white"/>
<path id="Vector_3" d="M30.1524 19.1789C30.0609 19.8472 29.7326 20.4604 29.2273 20.907C28.722 21.3537 28.0731 21.6042 27.3987 21.6129C26.7811 21.6178 26.1175 21.6154 25.5072 21.5887C25.2692 21.5777 25.0319 21.6231 24.8148 21.7212C24.5976 21.8192 24.4067 21.9672 24.2575 22.153C23.0902 23.6158 19.9393 27.2293 16.9677 27.7185C16.2187 27.861 15.4437 27.7484 14.7662 27.3988C13.0709 26.5051 10.431 23.5964 6.76431 22.6495C4.02275 21.9447 1.97869 22.3274 0.656344 23.5843C0.597235 23.3085 0.599348 23.0231 0.662534 22.7482C0.72572 22.4732 0.848442 22.2155 1.02205 21.9932C2.12884 20.6393 6.09588 15.9797 6.09588 15.9797C6.68923 7.80583 12.291 3.34715 20.0459 4.55809C23.807 5.14418 26.769 7.1495 28.2609 9.32676C30.426 12.4849 30.6731 15.4929 30.1524 19.1789Z" fill="white"/>
<path id="Vector_4" d="M24.8775 21.6952C24.634 21.7903 24.4201 21.9482 24.2575 22.1529C23.0902 23.6157 19.9393 27.2292 16.9677 27.7184C16.2187 27.8609 15.4437 27.7483 14.7662 27.3987C13.0709 26.505 10.431 23.5963 6.76431 22.6494C4.02275 21.9446 1.97869 22.3273 0.656344 23.5842C0.597235 23.3084 0.599348 23.023 0.662534 22.7481C0.72572 22.4731 0.848442 22.2154 1.02205 21.9931C2.12884 20.6392 6.09587 15.9796 6.09587 15.9796C8.02338 15.4091 10.0668 15.354 12.0222 15.8197C16.7449 16.9289 19.4767 19.8836 24.8775 21.6952Z" fill="white"/>
<path id="Vector_5" d="M24.8772 22.0584C24.8379 22.0585 24.7989 22.0521 24.7617 22.0395C22.1802 21.1737 20.231 20.0671 18.3461 18.9972C16.3079 17.8402 14.3825 16.7472 11.9395 16.1732C10.0515 15.7263 8.07979 15.7777 6.21759 16.3222C6.12674 16.3543 6.02685 16.349 5.93989 16.3075C5.85294 16.2659 5.78604 16.1916 5.75393 16.1007C5.72181 16.0099 5.7271 15.91 5.76864 15.823C5.81017 15.736 5.88455 15.6692 5.97541 15.637C7.96801 15.0395 10.0833 14.9806 12.1061 15.4661C14.6518 16.0638 16.6212 17.1817 18.7062 18.3655C20.5614 19.4183 22.4793 20.5072 24.9942 21.3507C25.0759 21.3782 25.1451 21.4337 25.1896 21.5076C25.2341 21.5814 25.2509 21.6686 25.2371 21.7537C25.2232 21.8387 25.1795 21.9161 25.1138 21.9719C25.0482 22.0277 24.9648 22.0584 24.8786 22.0584H24.8772Z" fill="white"/>
</g>
</svg>
