<svg width="45" height="33" viewBox="0 0 45 33" fill="none" xmlns="http://www.w3.org/2000/svg">
<g id="Frame 8">
<path id="image 25 (Traced)" fill-rule="evenodd" clip-rule="evenodd" d="M20.2103 0.0292095C20.0408 0.0490081 19.407 0.108404 18.8018 0.16123C14.4073 0.544338 10.6199 1.78125 8.98377 3.36751C8.02622 4.29576 6.98953 6.08421 6.03128 8.46104L5.53468 9.69275L3.12273 9.74348C1.79614 9.7714 0.702235 9.80224 0.691847 9.81191C0.681371 9.82167 0.53409 9.95588 0.364448 10.1103C0.180809 10.2774 0.0352893 10.5081 0.00491754 10.6805C-0.0646293 11.0746 0.623092 14.5482 0.829884 14.8477C1.10349 15.2439 1.51479 15.3948 2.32188 15.3949L3.05257 15.3951L2.6499 15.98C2.13305 16.7307 1.70221 17.701 1.45123 18.6798C1.18933 19.7013 1.16538 21.4877 1.39964 22.5312C1.7192 23.9542 2.30322 25.1431 3.1678 26.1299L3.65991 26.6917L3.66044 29.0495C3.6607 30.3899 3.70014 31.5538 3.75182 31.7467C3.87348 32.2005 4.23451 32.6281 4.66869 32.8325C4.9857 32.9818 5.28326 33 7.40136 33C9.52641 33 9.8156 32.9821 10.1304 32.8316C10.9279 32.4501 11.1428 31.9451 11.1428 30.4523V29.3545H22.4992H33.8556V30.4523C33.8556 31.9451 34.0705 32.4501 34.868 32.8316C35.1828 32.9821 35.472 33 37.597 33C39.7151 33 40.0127 32.9818 40.3297 32.8325C40.7639 32.6281 41.1249 32.2005 41.2465 31.7467C41.298 31.5545 41.3377 30.4037 41.3379 29.0942L41.3385 26.781L41.7486 26.3114C42.7589 25.1547 43.408 23.7465 43.6832 22.1148C44.03 20.0577 43.4681 17.5978 42.2836 15.9882L41.8808 15.4407L42.7361 15.3951C43.6383 15.347 43.9418 15.2278 44.1907 14.8236C44.3829 14.5115 45.0592 11.0363 44.9958 10.6862C44.9638 10.5092 44.8189 10.2786 44.6339 10.1103C44.4643 9.95588 44.317 9.82167 44.3065 9.81191C44.2961 9.80224 43.2022 9.7714 41.8756 9.74348L39.4637 9.69275L38.964 8.46104C37.5852 5.06262 36.4129 3.36897 34.8101 2.45978C32.8511 1.34842 30.163 0.597438 26.7248 0.200828C25.5321 0.0633321 20.9505 -0.0574664 20.2103 0.0292095ZM26.5928 3.74934C29.3683 4.10727 31.3222 4.62166 32.7551 5.37146C33.5765 5.80128 33.833 6.03001 34.3183 6.76557C34.8724 7.6056 36.4086 11.1183 36.4086 11.5454C36.4086 11.6294 33.2198 11.6544 22.4992 11.6544C11.4301 11.6544 8.5899 11.6311 8.59034 11.5403C8.59114 11.3395 9.26961 9.60708 9.80512 8.43805C10.6227 6.65335 11.1085 5.99717 11.9791 5.50165C13.6747 4.53672 16.2944 3.92105 20.1223 3.58812C21.0498 3.50747 25.5954 3.6207 26.5928 3.74934ZM10.3605 17.6774C12.1293 18.0229 13.3646 19.8295 13.0784 21.6522C12.7099 23.9987 10.3684 25.2926 8.28205 24.3028C6.60967 23.5092 5.86437 21.3334 6.6705 19.598C7.09024 18.6945 8.10466 17.8733 9.03439 17.6845C9.58416 17.5727 9.81798 17.5715 10.3605 17.6774ZM35.9274 17.6844C36.8403 17.8593 37.5334 18.3194 38.0835 19.1154C39.0273 20.4814 38.8621 22.4178 37.699 23.6233C36.0461 25.3363 33.2475 24.8137 32.2346 22.6029C31.9902 22.0695 31.9628 21.9226 31.9628 21.1431C31.9628 20.358 31.9892 20.2185 32.2433 19.6628C32.7132 18.6349 33.6159 17.896 34.6634 17.6824C35.2039 17.5722 35.3431 17.5724 35.9274 17.6844Z" fill="white" fill-opacity="0.19"/>
</g>
</svg>
