<svg width="30" height="49" viewBox="0 0 30 49" fill="none" xmlns="http://www.w3.org/2000/svg">
<path fill-rule="evenodd" clip-rule="evenodd" d="M6.71817 0.329359L6.35634 0.658813L6.2947 3.08231C6.23018 5.62197 6.08148 6.85969 5.73072 7.77658C5.62459 8.05388 5.53782 8.29157 5.53782 8.30478C5.53772 8.31798 9.201 8.3287 13.6783 8.3287H21.8187L21.6713 8.04527C21.2729 7.27996 21.1306 6.24844 21.0501 3.54429C21.007 2.09701 20.9279 0.805216 20.8741 0.673645C20.8205 0.542074 20.6804 0.348305 20.5628 0.243048C20.3541 0.056169 20.1946 0.0510975 13.7146 0.0258358L7.0801 0L6.71817 0.329359ZM4.90806 9.52222C2.7991 9.97846 1.03762 11.579 0.271878 13.7351L0 14.5006V24.5V34.4994L0.271974 35.264C0.963274 37.2077 2.41714 38.6523 4.38202 39.3477L5.00803 39.5693L13.3387 39.5977C22.7056 39.6295 22.399 39.6491 23.8639 38.9273C24.4866 38.6204 24.8295 38.3625 25.476 37.7146C26.748 36.4398 27.2309 35.304 27.3616 33.2794L27.4281 32.2507L28.2565 32.2493C29.1979 32.2478 29.4661 32.1485 29.7804 31.685C29.9932 31.3714 30 31.2927 30 29.1651C30 27.3307 29.9741 26.9147 29.8425 26.6393C29.618 26.1693 29.2306 26.0034 28.2424 25.954L27.3997 25.9119V24.5V23.0881L28.2424 23.046C29.2306 22.9966 29.618 22.8307 29.8425 22.3607C29.9741 22.0853 30 21.6693 30 19.8349C30 17.7073 29.9932 17.6286 29.7804 17.315C29.4661 16.8515 29.1979 16.7522 28.2565 16.7507L27.4281 16.7493L27.3616 15.7206C27.2307 13.6936 26.7471 12.5573 25.476 11.2894C24.5361 10.3519 23.7115 9.87129 22.5256 9.56997C21.814 9.38912 21.443 9.38156 13.6363 9.38883C7.28831 9.39476 5.36119 9.42423 4.90806 9.52222ZM22.4112 12.8547C23.0988 13.1903 23.7622 13.9101 24.0237 14.6045C24.2183 15.1212 24.2215 15.2823 24.2215 24.5C24.2215 33.7177 24.2183 33.8788 24.0237 34.3955C23.7622 35.0899 23.0988 35.8097 22.4112 36.1453L21.862 36.4132L13.8274 36.4392C6.73859 36.4623 5.73949 36.4476 5.33798 36.3151C4.26395 35.9607 3.46199 35.109 3.18135 34.0248C2.95801 33.1619 2.95945 15.8287 3.18299 14.9762C3.46623 13.8958 4.08501 13.1975 5.14478 12.762L5.68218 12.5413L13.7721 12.564L21.862 12.5868L22.4112 12.8547ZM5.72812 41.078C6.11432 41.9525 6.2323 42.909 6.29557 45.6785L6.35634 48.3413L6.71817 48.6706L7.0801 49L13.7225 48.9742L20.3648 48.9483L20.6127 48.702C20.9526 48.3643 21.0386 47.678 21.0433 45.2643C21.0476 43.0906 21.1304 42.3098 21.4607 41.3313L21.6835 40.6713H13.6161H5.54851L5.72812 41.078Z" fill="white" fill-opacity="0.25"/>
</svg>
