<svg width="38" height="38" viewBox="0 0 38 38" fill="none" xmlns="http://www.w3.org/2000/svg">
<g opacity="0.25">
<path d="M37.3381 17.2505H36.6937C36.0533 12.1911 31.2654 12.1871 29.6164 12.1871C29.2007 12.1871 28.7931 12.1982 28.4099 12.2085C28.0837 12.2172 27.775 12.2251 27.4908 12.2251C26.6326 12.2251 25.8584 12.2607 25.1499 12.3288C21.0919 10.9371 16.6848 10.9371 12.6276 12.3288C11.9183 12.2607 11.1448 12.2251 10.2859 12.2251C10.0025 12.2251 9.69298 12.2164 9.36762 12.2085C8.98369 12.1974 8.57757 12.1871 8.16114 12.1871C6.51137 12.1871 1.72421 12.1919 1.08379 17.2505H0.660236C0.294494 17.2505 0 17.5474 0 17.9107C0 18.2765 0.294494 18.571 0.660236 18.571H1.00698C0.964229 21.2895 2.22614 26.2349 7.39641 26.6759C7.50009 26.6909 7.72022 26.7147 8.03208 26.7147C9.25755 26.7147 12.4574 26.3291 15.7285 22.7643C15.9556 22.5348 17.3894 20.9974 18.0314 18.571H19.7437C20.3873 20.9966 21.8194 22.5348 22.0474 22.7643C25.3177 26.3291 28.5176 26.7147 29.743 26.7147C30.0565 26.7147 30.2758 26.6909 30.3803 26.6759C35.5491 26.2341 36.8125 21.2887 36.7681 18.571H37.3389C37.7039 18.571 38 18.2765 38 17.9107C37.9992 17.5474 37.7031 17.2505 37.3381 17.2505ZM20.3382 14.1393C19.629 14.9263 19.3455 15.9126 19.4729 17.1571C19.4761 17.1903 19.4848 17.218 19.4888 17.2505H18.2847C18.2886 17.2181 18.2973 17.1903 18.3005 17.1571C18.4279 15.9134 18.1461 14.927 17.4352 14.1393C16.9515 13.6034 16.2714 13.1917 15.3959 12.8838C17.7012 12.4294 20.073 12.4294 22.3774 12.8838C21.502 13.1917 20.8227 13.6041 20.3382 14.1393Z" fill="white"/>
<path d="M20.5498 17.0463C20.3535 15.1321 21.2401 13.3058 27.4902 13.3058C30.3583 13.3058 35.687 12.4872 35.687 18.4294C35.687 18.4294 35.9426 25.141 30.257 25.6017C30.257 25.6017 26.6708 26.216 22.829 22.0163C22.8282 22.0163 20.8633 20.1053 20.5498 17.0463Z" fill="white"/>
<path d="M17.2256 17.0463C17.4219 15.1321 16.5353 13.3058 10.2844 13.3058C7.41631 13.3058 2.08849 12.4872 2.08849 18.4294C2.08849 18.4294 1.83199 25.141 7.51844 25.6017C7.51844 25.6017 11.1031 26.216 14.9465 22.0163C14.9472 22.0163 16.9105 20.1053 17.2256 17.0463Z" fill="white"/>
<path d="M7.94221 13.2647L2.10778 19.0999C2.08403 18.6875 2.09115 18.4262 2.09115 18.4262C2.09115 18.165 2.09983 17.9196 2.12284 17.6892L6.46106 13.3597C6.9526 13.2971 7.45133 13.2726 7.94221 13.2647Z" fill="white"/>
<path d="M11.6307 13.3361L2.80456 22.163C2.56706 21.6176 2.40876 21.0626 2.30582 20.5638L9.57317 13.2965C9.82647 13.2965 10.064 13.3044 10.2857 13.3044C10.7686 13.3053 11.2119 13.3124 11.6307 13.3361Z" fill="white"/>
<path d="M26.7352 13.312L21.0124 19.0357C20.8857 18.7032 20.7749 18.3382 20.6957 17.9503L25.2477 13.3983C25.6989 13.3603 26.1977 13.3278 26.7352 13.312Z" fill="white"/>
<path d="M30.512 13.2884L22.3422 21.4503C22.1047 21.1423 21.8039 20.714 21.5267 20.1836L28.4228 13.2883C29.0712 13.2726 29.7837 13.2488 30.512 13.2884Z" fill="white"/>
</g>
</svg>
