<svg width="38" height="38" viewBox="0 0 38 38" fill="none" xmlns="http://www.w3.org/2000/svg">
<path fill-rule="evenodd" clip-rule="evenodd" d="M16.8788 0.0433554C16.2007 0.220789 15.6657 0.66887 15.3645 1.31156L15.1706 1.72537L15.1321 10.3109C15.1109 15.0329 15.0859 18.9039 15.0764 18.913C15.0669 18.9222 14.9565 18.9829 14.831 19.0478C14.5485 19.194 14.2038 19.1318 14.0579 18.9085C14.0002 18.82 13.0961 15.5365 12.0488 11.6117C10.8272 7.03373 10.0808 4.36524 9.96683 4.16759C9.60084 3.5333 8.85051 3.10247 8.10975 3.10128C7.43057 3.10016 6.99588 3.28057 6.51284 3.76403C6.04829 4.22899 5.84992 4.68108 5.84992 5.27493C5.84992 5.51599 6.51558 8.13119 7.82271 13.0256C9.92621 20.9016 9.85506 20.5689 9.49553 20.8452C9.31721 20.9822 8.86261 20.9616 8.72715 20.8104C8.66305 20.7389 7.48568 18.7235 6.11067 16.3319C4.73567 13.9402 3.53794 11.8733 3.44912 11.7388C3.2252 11.3997 2.71594 11.0771 2.25243 10.9808C0.943824 10.7089 -0.25301 11.9266 0.04644 13.2251C0.10734 13.4892 0.714187 14.6121 2.00363 16.8468C3.03151 18.6282 4.03346 20.4035 4.2302 20.7918C4.98514 22.2823 5.5573 24.0962 5.80974 25.7995C5.87561 26.2437 5.96132 27.2807 6.00016 28.1038C6.07859 29.7631 6.25119 30.7142 6.66048 31.7418C7.76767 34.5222 10.0029 36.6347 12.7999 37.544C14.0652 37.9555 14.4673 38 16.9159 38C19.4652 38 20.0358 37.9326 21.4418 37.4651C23.2163 36.8752 24.4447 36.065 26.0589 34.42C28.4803 31.9522 37.7137 22.1916 37.8183 21.9892C38.1483 21.3505 38.0227 20.6289 37.4919 20.1142C37.0189 19.6556 36.6624 19.5682 35.7058 19.6768C34.4657 19.8174 33.2396 20.3523 32.3763 21.1292C32.1648 21.3195 31.1721 22.4251 30.1701 23.5862C28.2192 25.847 28.0746 25.9736 27.3597 26.0469C26.5764 26.1272 25.8704 25.7399 25.5125 25.0336L25.3082 24.6305V22.6394V20.6482L27.3787 12.8965C28.5174 8.63301 29.4724 5.00488 29.501 4.83406C29.5699 4.42114 29.3829 3.70382 29.0985 3.29016C28.1849 1.961 26.0883 2.10848 25.3413 3.55441C25.2762 3.68033 24.2218 7.28408 22.998 11.5629C21.2751 17.587 20.7383 19.3717 20.6187 19.4724C20.4154 19.6438 20.0211 19.638 19.802 19.4605L19.6267 19.3183L19.5896 10.4476L19.5524 1.5767L19.3849 1.26287C19.1252 0.77643 18.7992 0.448472 18.3632 0.234987C17.938 0.0267791 17.2712 -0.0593731 16.8788 0.0433554ZM24.444 24.9275C24.6869 25.1706 24.6978 25.475 24.4727 25.7309C24.3421 25.8793 24.1715 25.9459 23.6927 26.0352C20.9522 26.5468 18.6068 28.3189 17.3536 30.8249C16.8029 31.9262 16.5277 32.9609 16.4256 34.3146C16.3628 35.1469 16.2366 35.3612 15.8095 35.3612C15.6099 35.3612 15.4823 35.3096 15.3603 35.1797C15.2079 35.0172 15.1912 34.9314 15.2009 34.3603C15.2764 29.9241 18.6371 25.8991 23.1173 24.8793C23.9759 24.6839 24.2091 24.6923 24.444 24.9275Z" fill="white" fill-opacity="0.25"/>
</svg>
