<svg width="33" height="31" viewBox="0 0 33 31" fill="none" xmlns="http://www.w3.org/2000/svg">
<path d="M23.0619 10.2425L24.5458 7.50636C25.4071 5.91822 25.3483 4.00935 24.3906 2.47389C23.4328 0.938356 21.716 0 19.8641 0H12.5978C10.746 0 9.02896 0.938356 8.07127 2.47382C7.11358 4.00929 7.05471 5.91815 7.91602 7.5063L9.39996 10.2425C5.63427 12.4774 3.11639 16.5009 3.11639 21.0836C3.11639 24.1874 4.28471 27.1759 6.40614 29.4984C7.27777 30.4526 8.53246 30.9999 9.84852 30.9999H22.6135C23.9296 30.9999 25.1842 30.4527 26.0558 29.4984C28.1773 27.1758 29.3456 24.1873 29.3456 21.0836C29.3455 16.501 26.8276 12.4775 23.0619 10.2425ZM20.351 5.95648L18.8942 8.64252C18.034 8.4699 17.1431 8.3789 16.2309 8.3789C15.3186 8.3789 14.4278 8.46984 13.5676 8.64252L12.1108 5.95648C11.9229 5.60991 11.9357 5.19329 12.1447 4.85816C12.3537 4.52309 12.7284 4.31826 13.1326 4.31826H19.3293C19.7335 4.31826 20.1082 4.52303 20.3172 4.85816C20.5261 5.19329 20.539 5.60985 20.351 5.95648Z" fill="#F4CA36"/>
</svg>
