<svg width="29" height="29" viewBox="0 0 29 29" fill="none" xmlns="http://www.w3.org/2000/svg">
<g opacity="0.25" clip-path="url(#clip0_2_534)">
<path d="M27.7787 13.4554C27.3982 13.3676 27.0135 13.5505 26.8428 13.8961C25.9784 15.6386 24.0982 16.764 22.1369 16.764H17.5411C16.9451 16.764 16.3572 16.8965 15.7969 17.1551C15.1586 17.4462 14.6179 17.8902 14.2114 18.4325C13.8064 17.8934 13.2722 17.4544 12.6461 17.1738C12.1224 16.9022 11.528 16.764 10.8799 16.764H6.28411C4.32278 16.764 2.44266 15.6386 1.57831 13.8961C1.40756 13.5505 1.01888 13.3699 0.642416 13.4554C0.265892 13.5432 0 13.879 0 14.266V20.9272C0 25.0595 3.41702 28.421 7.54934 28.421C11.18 28.421 13.2266 26.8062 14.2105 25.6832C15.1944 26.8062 17.2411 28.421 20.8717 28.421C25.004 28.421 28.4211 25.0595 28.4211 20.9272V14.266C28.4211 13.879 28.1552 13.5432 27.7787 13.4554ZM7.54934 25.0905C5.25384 25.0905 3.3861 23.2227 3.3861 20.9272C3.3861 20.467 3.75852 20.0946 4.21875 20.0946H10.8799C11.3402 20.0946 11.7126 20.467 11.7126 20.9272C11.7126 23.2227 9.84484 25.0905 7.54934 25.0905ZM20.8717 25.0905C18.5762 25.0905 16.7085 23.2227 16.7085 20.9272C16.7085 20.467 17.0809 20.0946 17.5411 20.0946H24.2023C24.6625 20.0946 25.035 20.467 25.035 20.9272C25.035 23.2227 23.1672 25.0905 20.8717 25.0905Z" fill="white"/>
<path d="M27.5884 6.1616C24.6407 6.1616 21.8328 7.21001 19.6489 8.99077L19.6321 9.00448C19.7362 10.5676 19.5928 12.5302 19.1886 15.0987H20.8999L21.3099 14.4881C22.2116 13.1452 23.5361 12.1006 25.1032 11.5624C27.0548 10.8989 28.4211 9.06288 28.4211 6.99425C28.4211 6.53401 28.0486 6.1616 27.5884 6.1616Z" fill="white"/>
<path d="M13.37 15.6736C13.6626 15.8078 13.9434 15.9677 14.2093 16.1508C14.491 15.955 14.7902 15.7841 15.103 15.6412C15.8724 15.2868 16.6793 15.1047 17.5021 15.0992C17.9656 12.2328 18.1002 10.1324 17.9249 8.60636C17.7007 6.65347 16.9883 5.82981 16.3597 5.10313C15.6515 4.28447 15.04 3.57739 15.04 0.832648C15.04 0.372804 14.6672 0 14.2073 0C13.7475 0 13.3747 0.372804 13.3747 0.832648C13.3747 3.57012 12.7637 4.26349 12.0564 5.06644C11.4234 5.78491 10.7059 6.59924 10.481 8.55785C10.3051 10.0889 10.4423 12.2047 10.9118 15.0991C11.7997 15.1036 12.6264 15.2966 13.37 15.6736Z" fill="white"/>
<path d="M0.832648 6.1616C3.78039 6.1616 6.58824 7.21001 8.77217 8.99077L8.78893 9.00448C8.68485 10.5676 8.82823 12.5302 9.23246 15.0987H7.5212L7.1112 14.4881C6.20944 13.1452 4.88492 12.1006 3.31782 11.5624C1.36626 10.8989 0 9.06288 0 6.99425C0 6.53401 0.372416 6.1616 0.832648 6.1616Z" fill="white"/>
</g>
<defs>
<clipPath id="clip0_2_534">
<rect width="28.4211" height="28.4211" fill="white"/>
</clipPath>
</defs>
</svg>
