<svg width="33" height="33" viewBox="0 0 33 33" fill="none" xmlns="http://www.w3.org/2000/svg">
<path fill-rule="evenodd" clip-rule="evenodd" d="M14.849 1.61078L13.2418 3.22157L19.8418 9.82933L26.4418 16.437L19.8209 23.0665L13.1999 29.696L14.8498 31.3481L16.4998 33L24.7499 24.7397L33 16.4793L24.7709 8.23971C20.2448 3.70783 16.5225 0 16.4989 0C16.4754 0 15.7329 0.724836 14.849 1.61078ZM8.29086 8.17655L6.64104 9.82833L9.96164 13.1538L13.2822 16.4793L9.96139 19.805L6.64054 23.1307L8.2703 24.7609L9.90007 26.391L14.8708 21.4141L19.8417 16.4371L14.8911 11.4809L9.94059 6.52478L8.29086 8.17655ZM1.66962 14.8065L0 16.4798L1.64948 18.1314L3.29905 19.783L4.97025 18.1097L6.64146 16.4364L4.99039 14.7848L3.33923 13.1332L1.66962 14.8065Z" fill="white" fill-opacity="0.19"/>
</svg>
