<svg
                            xmlns="http://www.w3.org/2000/svg"
                            width="15"
                            height="19"
                            viewBox="0 0 15 19"
                            fill="none"
                        >
                            <path
                                fillRule="evenodd"
                                clipRule="evenodd"
                                d="M1.98142 0.0579828C1.91286 0.0911847 1.83062 0.171376 1.79869 0.23614C1.76681 0.300867 1.48317 1.37868 1.16839 2.63123L0.596139 4.90859V5.99509V7.08159L0.43373 7.38819C0.344388 7.55681 0.210296 7.82895 0.135661 7.99291L0 8.29102L0.019649 12.7627C0.0335328 15.9286 0.0522013 17.2744 0.0835378 17.3717C0.107893 17.4472 0.181587 17.552 0.247319 17.6045L0.366822 17.7001H2.13065C4.07755 17.7001 4.0583 17.7023 4.19388 17.4666C4.25887 17.3536 4.26396 17.0631 4.27553 12.8017L4.28785 8.25741L4.18066 8.01337C4.12171 7.87914 3.99703 7.62292 3.90357 7.44402L3.73371 7.1187V6.07547V5.03224L3.55562 4.23949C3.1697 2.52186 2.66921 0.386015 2.63066 0.292334C2.53057 0.0488904 2.22658 -0.0608138 1.98142 0.0579828ZM7.36153 0.035401C7.14332 0.121145 7.13379 0.150098 6.52019 2.5883L5.93002 4.9336L5.93025 6.01611L5.93049 7.09858L5.64591 7.65727L5.36133 8.21597L5.364 12.5016C5.36549 14.8586 5.38043 16.9354 5.39726 17.1167C5.42385 17.4036 5.44212 17.4614 5.53845 17.5638L5.64905 17.6815H7.4988H9.34856L9.45916 17.5638C9.55548 17.4614 9.57376 17.4036 9.60035 17.1167C9.61718 16.9354 9.63212 14.8586 9.63361 12.5016L9.63628 8.21597L9.3517 7.65727L9.06712 7.09858L9.06736 6.04454L9.06759 4.9905L8.84984 4.0323C8.34913 1.82886 7.97168 0.263045 7.92351 0.189822C7.82397 0.0383448 7.5474 -0.0376358 7.36153 0.035401ZM12.6456 0.074416C12.575 0.115294 12.5001 0.186505 12.4791 0.232675C12.4581 0.278807 12.1761 1.37168 11.8524 2.66119L11.2639 5.00578V6.06217V7.11855L11.0624 7.49984C10.9516 7.70956 10.8193 7.98631 10.7683 8.11487L10.6756 8.34863L10.6754 11.3754C10.6751 14.8819 10.7321 17.3271 10.8178 17.4852C10.9339 17.6993 10.9411 17.7001 12.8646 17.7001C14.6123 17.7001 14.6271 17.6995 14.7343 17.6193C14.9741 17.4401 14.9611 17.6933 14.9814 12.7919L15 8.31226L14.9098 8.09669C14.8602 7.97812 14.73 7.71343 14.6204 7.50848L14.4211 7.13584L14.4005 5.94341L14.38 4.75097L13.8618 2.55241C13.5768 1.34321 13.3168 0.298445 13.2839 0.2307C13.222 0.103184 13.0334 -0.000260353 12.8634 4.92232e-07C12.8141 7.50196e-05 12.7161 0.0335751 12.6456 0.074416ZM0.336426 18.1635C0.16233 18.2355 0.0862832 18.3575 0.0862832 18.5649C0.0862832 18.7083 0.108246 18.7656 0.200687 18.864L0.31513 18.9857L2.10257 18.9961C4.09395 19.0077 4.07849 19.0094 4.18784 18.7608C4.26032 18.596 4.25816 18.5044 4.17799 18.3439C4.06194 18.1116 4.04677 18.1098 2.15638 18.1114C0.814867 18.1126 0.433181 18.1235 0.336426 18.1635ZM5.66783 18.1645C5.34839 18.2965 5.34117 18.794 5.65642 18.9489C5.75816 18.9989 6.01065 19.0051 7.56116 18.9961L9.3486 18.9857L9.46304 18.864C9.55548 18.7656 9.57745 18.7083 9.57745 18.5649C9.57745 18.354 9.50042 18.2341 9.31864 18.1619C9.12756 18.0861 5.85205 18.0884 5.66783 18.1645ZM11.0059 18.1629C10.8804 18.2147 10.754 18.4114 10.754 18.5547C10.754 18.7015 10.8638 18.8867 10.9865 18.947C11.0931 18.9994 11.321 19.0053 12.895 18.9961L14.6825 18.9857L14.7969 18.864C14.8894 18.7656 14.9113 18.7083 14.9113 18.5649C14.9113 18.354 14.8343 18.2341 14.6525 18.1619C14.4648 18.0875 11.1862 18.0883 11.0059 18.1629Z"
                                fill="white"
                            />
                        </svg>