 <svg
                        xmlns="http://www.w3.org/2000/svg"
                        width="16"
                        height="16"
                        viewBox="0 0 16 16"
                        fill="none"
                    >
                        <path
                            d="M11.4155 5.28647L12.1575 3.87425C12.5881 3.05456 12.5587 2.06934 12.0798 1.27684C11.601 0.484313 10.7425 0 9.81659 0H6.18347C5.25753 0 4.39903 0.484313 3.92019 1.27681C3.44134 2.06931 3.41191 3.05453 3.84256 3.87422L4.58453 5.28644C2.70169 6.43997 1.44275 8.51659 1.44275 10.8819C1.44275 12.4838 2.02691 14.0262 3.08762 15.225C3.52344 15.7175 4.15078 16 4.80881 16H11.1913C11.8493 16 12.4767 15.7175 12.9125 15.225C13.9732 14.0262 14.5573 12.4838 14.5573 10.8819C14.5573 8.51662 13.2983 6.44 11.4155 5.28647ZM10.06 3.07431L9.33166 4.46066C8.90153 4.37156 8.45612 4.32459 8 4.32459C7.54387 4.32459 7.09847 4.37153 6.66834 4.46066L5.93997 3.07431C5.846 2.89544 5.85241 2.68041 5.95691 2.50744C6.06141 2.3345 6.24875 2.22878 6.45084 2.22878H9.54922C9.75131 2.22878 9.93866 2.33447 10.0432 2.50744C10.1476 2.68041 10.1541 2.89541 10.06 3.07431Z"
                            fill="white"
                        />
                    </svg>