<svg width="70" height="70" fill="none" xmlns="http://www.w3.org/2000/svg"><rect x=".5" y="1.5" width="69" height="69" rx="4.5" fill="url(#a)" stroke="#F3CE95"/><g filter="url(#b)"><path d="M34.5 18c-5.118 0-9.28 4.038-9.28 8.999v5.629h-1.16c-2.239 0-4.06 1.766-4.06 3.937v13.498C20 52.234 21.821 54 24.06 54h20.88c2.239 0 4.06-1.766 4.06-3.937V36.565c0-2.171-1.821-3.937-4.06-3.937h-1.16v-5.63c0-4.96-4.164-8.998-9.28-8.998Zm-5.8 8.999c0-3.1 2.602-5.624 5.8-5.624s5.8 2.524 5.8 5.624v5.629H28.7v-5.63Zm-.58 18.013c-.963 0-1.74-.753-1.74-1.687s.777-1.687 1.74-1.687 1.74.754 1.74 1.687c0 .934-.777 1.687-1.74 1.687Zm6.38 0c-.963 0-1.74-.753-1.74-1.687s.777-1.687 1.74-1.687 1.74.754 1.74 1.687c0 .934-.777 1.687-1.74 1.687Zm6.38 0c-.963 0-1.74-.753-1.74-1.687s.777-1.687 1.74-1.687 1.74.754 1.74 1.687c0 .934-.777 1.687-1.74 1.687Z" fill="#fff"/></g><defs><radialGradient id="a" cx="0" cy="0" r="1" gradientUnits="userSpaceOnUse" gradientTransform="matrix(0 35 -35 0 35 36)"><stop stop-color="#F2CD95"/><stop offset="1" stop-color="#B2895F"/></radialGradient><filter id="b" x="0" y="0" width="69" height="76" filterUnits="userSpaceOnUse" color-interpolation-filters="sRGB"><feFlood flood-opacity="0" result="BackgroundImageFix"/><feColorMatrix in="SourceAlpha" values="0 0 0 0 0 0 0 0 0 0 0 0 0 0 0 0 0 0 127 0" result="hardAlpha"/><feOffset dy="2"/><feGaussianBlur stdDeviation="10"/><feComposite in2="hardAlpha" operator="out"/><feColorMatrix values="0 0 0 0 0 0 0 0 0 0 0 0 0 0 0 0 0 0 0.2 0"/><feBlend in2="BackgroundImageFix" result="effect1_dropShadow_34_55"/><feBlend in="SourceGraphic" in2="effect1_dropShadow_34_55" result="shape"/></filter></defs></svg>